# xmcd
#
# Track frame offsets:
#	150
#	9782
#	19900
#	33267
#	44077
#	54671
#	66665
#	77899
#	90111
#	101004
#	112645
#	126012
#	138482
#	151703
#	164871
#	176684
#	187158
#	199733
#	213189
#	224740
#
# Disc length: 3151 seconds
#
# Revision: 0
# Processed by: cddbd v1.5.2PL0 Copyright (c) Steve Scherf et al.
# Submitted via: EasyCDDAExtractor 2010.6.0.0
#
DISCID=1b0c4d14
DTITLE=Eddie Kirk - Blue Bonnet Blues
DYEAR=1900
DGENRE=
TTITLE0=An Arm Full Of Heartaches
TTITLE1=Sugar Baby
TTITLE2=Petal From A Faded Rose
TTITLE3=When My Castles Came Tumbling Down
TTITLE4=Blue Bonnet Blues
TTITLE5=Blues Stay Away From Me
TTITLE6=Philosophy
TTITLE7=Born To Lose
TTITLE8=No Tears Tomorrow
TTITLE9=Candy Kisses
TTITLE10=Gods Were Angry With Me
TTITLE11=You Sweet Little You
TTITLE12=Save The Next Waltz For Me
TTITLE13=I've Lived A Lifetime With You
TTITLE14=I'd Rather Hear Most Anything
TTITLE15=Leetle Juan Pedro
TTITLE16=Two Years We Were Married
TTITLE17=Unfaithful One
TTITLE18=How Do You Mend A Broken Heart
TTITLE19=Promise Me
EXTD=
EXTT0=
EXTT1=
EXTT2=
EXTT3=
EXTT4=
EXTT5=
EXTT6=
EXTT7=
EXTT8=
EXTT9=
EXTT10=
EXTT11=
EXTT12=
EXTT13=
EXTT14=
EXTT15=
EXTT16=
EXTT17=
EXTT18=
EXTT19=
PLAYORDER=
